<svg width="13" height="35" viewBox="0 0 13 35" fill="none" xmlns="http://www.w3.org/2000/svg">
<path d="M0.441895 0C3.64228 0 5.88605 0.481734 7.1732 1.4452C8.4719 2.40867 8.99951 4.06862 8.75602 6.42505L8.23418 11.4049C8.14136 12.2871 8.29214 12.9778 8.6864 13.477C9.08066 13.9761 9.64879 14.3301 10.3909 14.5391C11.1447 14.7364 12.0144 14.8351 13 14.8351V19.2926C12.0259 19.2926 11.1621 19.3971 10.4083 19.6059C9.65468 19.8033 9.08066 20.1516 8.6864 20.6507C8.29214 21.1499 8.14136 21.8406 8.23418 22.7227L8.75602 27.6678C9.02271 30.0475 8.50087 31.719 7.19052 32.6824C5.89182 33.646 3.64228 34.1277 0.441895 34.1277V30.297C1.50877 30.297 2.33781 30.146 2.92914 29.8443C3.5206 29.5541 3.76986 28.9679 3.67716 28.0857L3.13788 22.9492C2.99877 21.6374 3.13788 20.5868 3.55535 19.7976C3.98436 18.9965 4.63377 18.3871 5.50345 17.9693C6.37301 17.5397 7.39348 17.238 8.5646 17.0638C7.32386 16.8781 6.26877 16.5763 5.39909 16.1584C4.54094 15.7405 3.91486 15.1369 3.5206 14.3476C3.12634 13.5466 2.99877 12.4903 3.13788 11.1785L3.67716 6.04199C3.76986 5.15977 3.5147 4.57357 2.91183 4.28338C2.32038 3.98157 1.49711 3.83066 0.441895 3.83066V0Z" fill="url(#paint0_linear_14_18)"/>
<defs>
<linearGradient id="paint0_linear_14_18" x1="-86.0501" y1="36.7549" x2="15.9719" y2="0.679722" gradientUnits="userSpaceOnUse">
<stop stop-color="#00C0FD"/>
<stop offset="1" stop-color="#E70FAA"/>
</linearGradient>
</defs>
</svg>
